<?xml version="1.0" encoding="UTF-8"?><svg id="Layer_1" xmlns="http://www.w3.org/2000/svg" viewBox="0 0 510.67 563.53"><defs><style>.cls-1{stroke-width:3.67px;}.cls-1,.cls-2{fill:none;stroke:#1c1d1d;stroke-linecap:round;stroke-linejoin:round;}.cls-2{stroke-width:16.73px;}</style></defs><circle class="cls-2" cx="312.85" cy="63.44" r="55.08"/><circle class="cls-2" cx="439.58" cy="417.72" r="62.72"/><path class="cls-2" d="M429.4,236.67l-101.5-33.78c-88.35-78.28-35.89-57.2-200.46-76.38-4.88-.58-9.83.1-14.37,1.94l-35.29,14.28c-14.99,6.06-22.22,23.12-16.15,38.11,6.06,14.99,23.14,22.21,38.11,16.16l28.35-11.47,56.21,6.55c-104.89,108.39-82.87,51.14-74.37,229.62l-90.4,71.14c-12.7,10-14.9,28.4-4.89,41.1,5.77,7.34,14.35,11.17,23.01,11.17,6.34,0,12.72-2.05,18.09-6.27l102.25-80.47c7.43-5.86,11.58-14.94,11.13-24.39l-4.09-85.8,81.48,61.24v116.48c0,16.17,13.11,29.27,29.27,29.27s29.27-13.1,29.27-29.27v-131.1c0-9.2-4.33-17.87-11.69-23.4l-116.44-87.52,71.15-73.53c46.48,41.23,46.79,41.47,48.12,42.39,2.32,1.63,4.86,2.9,7.55,3.79l107.19,35.66c3.06,1.02,6.17,1.51,9.24,1.51,12.26,0,23.68-7.77,27.77-20.04,5.1-15.34-3.19-31.91-18.54-37.01Z"/><circle class="cls-1" cx="436.3" cy="420.52" r="64.18"/><path class="cls-1" d="M392.46,373.64c16.03-4.77,37.04.38,55.65,14.03,3.87,2.84,7.64,6.06,11.23,9.62,3.67,3.64,6.97,7.47,9.88,11.41,13.66,18.49,18.89,39.42,14.19,55.4v.03"/><line class="cls-1" x1="481.53" y1="374.98" x2="391.06" y2="466.05"/><path class="cls-1" d="M377.16,445.51c-1.35-12.22,1.47-24.42,9.45-32.41,14.13-14.13,40.94-7.14,60.23-26.34.07-.06.12-.12.18-.18,9.01-9.01,9.32-22.42-2.42-29.71"/><path class="cls-1" d="M411.3,479.65c12.22,1.35,24.42-1.47,32.41-9.45,14.15-14.15,7.16-40.98,26.39-60.28.04-.04.09-.09.13-.13,9.01-9.01,22.43-9.31,29.72,2.44"/></svg>