<?xml version="1.0" encoding="UTF-8"?><svg id="Layer_1" xmlns="http://www.w3.org/2000/svg" viewBox="0 0 522.31 522.31"><defs><style>.cls-1{fill:none;stroke:#1c1d1d;stroke-linecap:round;stroke-linejoin:round;stroke-width:14.51px;}</style></defs><circle class="cls-1" cx="261.16" cy="261.16" r="253.9"/><path class="cls-1" d="M87.74,75.72c63.4-18.88,146.54,1.5,220.14,55.5,15.33,11.25,30.21,23.96,44.42,38.06,14.52,14.41,27.58,29.56,39.09,45.14,54.03,73.16,74.71,155.94,56.14,219.14v.1"/><line class="cls-1" x1="440.09" y1="81" x2="82.22" y2="441.27"/><path class="cls-1" d="M27.23,360c-5.33-48.32,5.8-96.59,37.39-128.19,55.91-55.91,161.94-28.26,238.27-104.18.26-.26.46-.46.72-.72,35.65-35.65,36.88-88.69-9.59-117.52"/><path class="cls-1" d="M162.29,495.06c48.32,5.33,96.59-5.8,128.19-37.39,55.96-55.96,28.32-162.09,104.39-238.47.15-.15.36-.36.51-.51,35.65-35.65,88.74-36.83,117.57,9.64"/></svg>